<?xml version="1.0" encoding="UTF-8" standalone="no"?><!DOCTYPE svg PUBLIC "-//W3C//DTD SVG 1.1//EN" "http://www.w3.org/Graphics/SVG/1.1/DTD/svg11.dtd">
<svg
        xmlns="http://www.w3.org/2000/svg"
        fill-rule="evenodd"
        stroke-linejoin="round"
        stroke-miterlimit="2"
        clip-rule="evenodd"
        viewBox="0 0 469 469"
>
    <path fill="none" d="M0 0H468.75V468.75H0z"></path>
    <g>
        <path
                fill-rule="nonzero"
                d="M155.876 166.92l-36.102 32.017c-3.396-10.672-5.094-21.276-5.094-31.812 0-35.301 14.175-63.625 42.525-84.97 28.349-21.345 66.001-32.017 112.956-32.017 0 0 11.674-.31 17.497 0 46.196 2.458 63.209 5.658 88.641 8.604 31.833 3.687 42.444-8.604 42.444-8.604s-7.958 36.873-51.729 32.017c-26.34-2.922-87.327-7.183-87.327-7.183s-3.049 30.732-3.989 38.38l-19.491 163.166c-5.906 48.437-20.081 83.533-42.524 105.289-25.397 24.629-55.74 36.943-91.03 36.943-33.37 0-57.585-15.188-72.646-45.563l35.437-25.04c7.383 35.028 28.128 52.542 62.237 52.542 20.967 0 36.766-7.457 47.397-22.371 10.631-14.915 18.014-40.159 22.148-75.734l27.243-227.612h-6.866c-61.425 0-92.137 18.814-92.137 56.441 0 11.767 3.47 23.603 10.41 35.507z"
        ></path>
        <path
                d="M228.015 89.728l-25.269 211.123a.813.813 0 00-.005.049c-3.756 32.312-9.882 55.407-19.538 68.953-7.924 11.116-19.895 16.252-35.522 16.252-13.103 0-23.764-2.967-31.733-9.695-8.177-6.903-13.324-17.465-16.234-31.27a14.583 14.583 0 00-22.685-8.903l-35.438 25.039a14.585 14.585 0 00-4.65 18.389c17.762 35.822 46.359 53.668 85.712 53.668 39.224 0 72.952-13.682 101.181-41.056 24.359-23.613 40.439-61.422 46.849-113.994l.005-.035L290.176 115.1c.519-4.232 1.667-15.334 2.604-24.565 19.52 1.431 54.413 4.094 72.626 6.115 22.67 2.515 37.798-4.1 47.937-12.361 15.927-12.977 19.655-31.075 19.655-31.075a14.512 14.512 0 01-3.218 6.453l-16.748-8.348-4.805-11.276s-9.862 6.574-30.25 4.212c-25.691-2.976-42.878-6.197-89.544-8.68-5.754-.306-16.865-.058-18.465-.02-50.551.027-90.99 11.952-121.535 34.95-32.235 24.27-48.337 56.481-48.337 96.62 0 11.999 1.913 24.079 5.781 36.234a14.585 14.585 0 0023.573 6.489l36.102-32.018a14.581 14.581 0 002.922-18.255c-5.513-9.457-8.425-18.814-8.425-28.162 0-16.232 8.201-27.417 24.1-33.91 11.379-4.647 26.017-7.145 43.866-7.775zM99.496 400.598a63.336 63.336 0 01-2.363-1.901c-8.132-6.866-14.735-15.863-19.594-27.107l-8.197 5.791c7.884 11.334 17.929 19.081 30.154 23.217zM269.31 64.727c-4.801.013-9.498.143-14.095.393l.161.172a14.585 14.585 0 013.573 11.413l-27.24 227.592c-1.381 11.876-3.148 22.682-5.271 32.427 7.314-17.011 12.332-37.696 15.292-61.957l19.487-163.145.006-.05c.932-7.58 3.952-38.04 3.952-38.04a14.524 14.524 0 014.135-8.805zm-137.384 79.144c-1.778 7.312-2.663 15.065-2.663 23.254 0 1.274.029 2.55.088 3.826l8.441-7.485c-2.837-6.547-4.784-13.081-5.866-19.595z"></path>
        <g fill="#fff">
            <path d="M279.704 91.867S264.095 243.295 256.29 291.69c-6.013 37.281-20.239 67.84-42.875 90.475-22.043 22.044-69.801 30.179-99.046 6.812-12.498-9.986-21.516-25.777-23.759-48.657a3.126 3.126 0 00-3.415-2.805 3.126 3.126 0 00-2.805 3.415c2.444 24.932 12.458 42.048 26.078 52.93 31.699 25.328 83.473 16.619 107.367-7.275 23.504-23.505 38.381-55.187 44.625-93.9 7.82-48.48 23.461-200.177 23.461-200.177a3.126 3.126 0 00-6.217-.641z"></path>
            <path d="M116.929 196.922c-3.341-10.097-4.429-26.996-4.429-36.964 0-33.277 16.162-62.322 43.948-82.444 28.165-20.395 65.596-30.505 112.245-30.505l.079-.001s11.631-.3 17.432-.003c46.558 2.382 63.704 5.486 89.334 8.342 34.225 3.813 45.538-9.376 45.538-9.376a3.126 3.126 0 00-4.652-4.175s-10.116 10.69-40.194 7.339c-25.737-2.867-42.955-5.979-89.707-8.372-5.769-.295-17.152-.022-17.874-.004-48.169.005-86.777 10.628-115.867 31.693-29.476 21.345-46.532 52.205-46.532 87.506 0 10.5 1.226 28.291 4.745 38.927a3.126 3.126 0 005.934-1.963z"></path>
        </g>
    </g>
</svg>